<mxfile host="app.diagrams.net" agent="Mozilla/5.0 (Windows NT 10.0; Win64; x64) AppleWebKit/537.36 (KHTML, like Gecko) Chrome/140.0.0.0 Safari/537.36 Edg/140.0.0.0" version="28.2.3">
  <diagram name="Página-1" id="bhca5_YrFF4AUvN9DoCs">
    <mxGraphModel dx="2198" dy="788" grid="1" gridSize="10" guides="1" tooltips="1" connect="1" arrows="1" fold="1" page="1" pageScale="1" pageWidth="827" pageHeight="1169" math="0" shadow="0">
      <root>
        <mxCell id="0" />
        <mxCell id="1" parent="0" />
        <mxCell id="86JuLYknP7ywa4V23wkP-5" value="" style="edgeStyle=orthogonalEdgeStyle;rounded=0;orthogonalLoop=1;jettySize=auto;html=1;" edge="1" parent="1" source="86JuLYknP7ywa4V23wkP-1" target="86JuLYknP7ywa4V23wkP-4">
          <mxGeometry relative="1" as="geometry" />
        </mxCell>
        <mxCell id="86JuLYknP7ywa4V23wkP-1" value="Inicio" style="ellipse;whiteSpace=wrap;html=1;" vertex="1" parent="1">
          <mxGeometry x="354" y="120" width="120" height="80" as="geometry" />
        </mxCell>
        <mxCell id="86JuLYknP7ywa4V23wkP-9" value="" style="edgeStyle=orthogonalEdgeStyle;rounded=0;orthogonalLoop=1;jettySize=auto;html=1;" edge="1" parent="1" source="86JuLYknP7ywa4V23wkP-4" target="86JuLYknP7ywa4V23wkP-8">
          <mxGeometry relative="1" as="geometry" />
        </mxCell>
        <mxCell id="86JuLYknP7ywa4V23wkP-4" value="Ler N1,N2,N3" style="shape=parallelogram;perimeter=parallelogramPerimeter;whiteSpace=wrap;html=1;fixedSize=1;" vertex="1" parent="1">
          <mxGeometry x="354" y="250" width="120" height="60" as="geometry" />
        </mxCell>
        <mxCell id="86JuLYknP7ywa4V23wkP-11" value="" style="edgeStyle=orthogonalEdgeStyle;rounded=0;orthogonalLoop=1;jettySize=auto;html=1;" edge="1" parent="1" source="86JuLYknP7ywa4V23wkP-8" target="86JuLYknP7ywa4V23wkP-10">
          <mxGeometry relative="1" as="geometry" />
        </mxCell>
        <mxCell id="86JuLYknP7ywa4V23wkP-28" value="Sim" style="edgeLabel;html=1;align=center;verticalAlign=middle;resizable=0;points=[];" vertex="1" connectable="0" parent="86JuLYknP7ywa4V23wkP-11">
          <mxGeometry x="-0.0833" y="-2" relative="1" as="geometry">
            <mxPoint as="offset" />
          </mxGeometry>
        </mxCell>
        <mxCell id="86JuLYknP7ywa4V23wkP-18" value="" style="edgeStyle=orthogonalEdgeStyle;rounded=0;orthogonalLoop=1;jettySize=auto;html=1;" edge="1" parent="1" source="86JuLYknP7ywa4V23wkP-8" target="86JuLYknP7ywa4V23wkP-17">
          <mxGeometry relative="1" as="geometry" />
        </mxCell>
        <mxCell id="86JuLYknP7ywa4V23wkP-25" value="Não" style="edgeLabel;html=1;align=center;verticalAlign=middle;resizable=0;points=[];" vertex="1" connectable="0" parent="86JuLYknP7ywa4V23wkP-18">
          <mxGeometry x="-0.383" y="3" relative="1" as="geometry">
            <mxPoint as="offset" />
          </mxGeometry>
        </mxCell>
        <mxCell id="86JuLYknP7ywa4V23wkP-8" value="Se N1&amp;gt;N2" style="rhombus;whiteSpace=wrap;html=1;" vertex="1" parent="1">
          <mxGeometry x="374" y="360" width="80" height="80" as="geometry" />
        </mxCell>
        <mxCell id="86JuLYknP7ywa4V23wkP-15" value="" style="edgeStyle=orthogonalEdgeStyle;rounded=0;orthogonalLoop=1;jettySize=auto;html=1;" edge="1" parent="1" source="86JuLYknP7ywa4V23wkP-10" target="86JuLYknP7ywa4V23wkP-14">
          <mxGeometry relative="1" as="geometry" />
        </mxCell>
        <mxCell id="86JuLYknP7ywa4V23wkP-31" value="Não" style="edgeLabel;html=1;align=center;verticalAlign=middle;resizable=0;points=[];" vertex="1" connectable="0" parent="86JuLYknP7ywa4V23wkP-15">
          <mxGeometry x="-0.0727" y="1" relative="1" as="geometry">
            <mxPoint as="offset" />
          </mxGeometry>
        </mxCell>
        <mxCell id="86JuLYknP7ywa4V23wkP-16" value="" style="edgeStyle=orthogonalEdgeStyle;rounded=0;orthogonalLoop=1;jettySize=auto;html=1;" edge="1" parent="1" source="86JuLYknP7ywa4V23wkP-10" target="86JuLYknP7ywa4V23wkP-13">
          <mxGeometry relative="1" as="geometry" />
        </mxCell>
        <mxCell id="86JuLYknP7ywa4V23wkP-29" value="Sim" style="edgeLabel;html=1;align=center;verticalAlign=middle;resizable=0;points=[];" vertex="1" connectable="0" parent="86JuLYknP7ywa4V23wkP-16">
          <mxGeometry x="-0.2" y="1" relative="1" as="geometry">
            <mxPoint as="offset" />
          </mxGeometry>
        </mxCell>
        <mxCell id="86JuLYknP7ywa4V23wkP-10" value="N1&amp;gt;N3" style="rhombus;whiteSpace=wrap;html=1;" vertex="1" parent="1">
          <mxGeometry x="550" y="360" width="80" height="80" as="geometry" />
        </mxCell>
        <mxCell id="86JuLYknP7ywa4V23wkP-34" style="edgeStyle=orthogonalEdgeStyle;rounded=0;orthogonalLoop=1;jettySize=auto;html=1;" edge="1" parent="1" source="86JuLYknP7ywa4V23wkP-13" target="86JuLYknP7ywa4V23wkP-32">
          <mxGeometry relative="1" as="geometry" />
        </mxCell>
        <mxCell id="86JuLYknP7ywa4V23wkP-13" value="Escrever N1 é o maior" style="shape=parallelogram;perimeter=parallelogramPerimeter;whiteSpace=wrap;html=1;fixedSize=1;" vertex="1" parent="1">
          <mxGeometry x="530" y="510" width="120" height="60" as="geometry" />
        </mxCell>
        <mxCell id="86JuLYknP7ywa4V23wkP-35" style="edgeStyle=orthogonalEdgeStyle;rounded=0;orthogonalLoop=1;jettySize=auto;html=1;" edge="1" parent="1" source="86JuLYknP7ywa4V23wkP-14" target="86JuLYknP7ywa4V23wkP-32">
          <mxGeometry relative="1" as="geometry">
            <Array as="points">
              <mxPoint x="800" y="700" />
            </Array>
          </mxGeometry>
        </mxCell>
        <mxCell id="86JuLYknP7ywa4V23wkP-14" value="Escrever N3 é o maior" style="shape=parallelogram;perimeter=parallelogramPerimeter;whiteSpace=wrap;html=1;fixedSize=1;" vertex="1" parent="1">
          <mxGeometry x="730" y="370" width="120" height="60" as="geometry" />
        </mxCell>
        <mxCell id="86JuLYknP7ywa4V23wkP-20" value="" style="edgeStyle=orthogonalEdgeStyle;rounded=0;orthogonalLoop=1;jettySize=auto;html=1;" edge="1" parent="1" source="86JuLYknP7ywa4V23wkP-17" target="86JuLYknP7ywa4V23wkP-19">
          <mxGeometry relative="1" as="geometry" />
        </mxCell>
        <mxCell id="86JuLYknP7ywa4V23wkP-24" value="Sim" style="edgeLabel;html=1;align=center;verticalAlign=middle;resizable=0;points=[];" vertex="1" connectable="0" parent="86JuLYknP7ywa4V23wkP-20">
          <mxGeometry x="-0.0857" relative="1" as="geometry">
            <mxPoint as="offset" />
          </mxGeometry>
        </mxCell>
        <mxCell id="86JuLYknP7ywa4V23wkP-22" value="" style="edgeStyle=orthogonalEdgeStyle;rounded=0;orthogonalLoop=1;jettySize=auto;html=1;" edge="1" parent="1" source="86JuLYknP7ywa4V23wkP-17" target="86JuLYknP7ywa4V23wkP-21">
          <mxGeometry relative="1" as="geometry" />
        </mxCell>
        <mxCell id="86JuLYknP7ywa4V23wkP-23" value="Não" style="edgeLabel;html=1;align=center;verticalAlign=middle;resizable=0;points=[];" vertex="1" connectable="0" parent="86JuLYknP7ywa4V23wkP-22">
          <mxGeometry x="0.06" y="-2" relative="1" as="geometry">
            <mxPoint as="offset" />
          </mxGeometry>
        </mxCell>
        <mxCell id="86JuLYknP7ywa4V23wkP-17" value="N2&amp;gt;N3" style="rhombus;whiteSpace=wrap;html=1;" vertex="1" parent="1">
          <mxGeometry x="200" y="360" width="80" height="80" as="geometry" />
        </mxCell>
        <mxCell id="86JuLYknP7ywa4V23wkP-33" style="edgeStyle=orthogonalEdgeStyle;rounded=0;orthogonalLoop=1;jettySize=auto;html=1;" edge="1" parent="1" source="86JuLYknP7ywa4V23wkP-19" target="86JuLYknP7ywa4V23wkP-32">
          <mxGeometry relative="1" as="geometry" />
        </mxCell>
        <mxCell id="86JuLYknP7ywa4V23wkP-19" value="Escrever N2 é o maior" style="shape=parallelogram;perimeter=parallelogramPerimeter;whiteSpace=wrap;html=1;fixedSize=1;" vertex="1" parent="1">
          <mxGeometry x="180" y="510" width="120" height="60" as="geometry" />
        </mxCell>
        <mxCell id="86JuLYknP7ywa4V23wkP-36" style="edgeStyle=orthogonalEdgeStyle;rounded=0;orthogonalLoop=1;jettySize=auto;html=1;" edge="1" parent="1" source="86JuLYknP7ywa4V23wkP-21" target="86JuLYknP7ywa4V23wkP-32">
          <mxGeometry relative="1" as="geometry">
            <Array as="points">
              <mxPoint x="40" y="700" />
            </Array>
          </mxGeometry>
        </mxCell>
        <mxCell id="86JuLYknP7ywa4V23wkP-21" value="Escrever N3 é o maior" style="shape=parallelogram;perimeter=parallelogramPerimeter;whiteSpace=wrap;html=1;fixedSize=1;" vertex="1" parent="1">
          <mxGeometry x="-10" y="370" width="120" height="60" as="geometry" />
        </mxCell>
        <mxCell id="86JuLYknP7ywa4V23wkP-32" value="Fim" style="ellipse;whiteSpace=wrap;html=1;" vertex="1" parent="1">
          <mxGeometry x="354" y="660" width="120" height="80" as="geometry" />
        </mxCell>
      </root>
    </mxGraphModel>
  </diagram>
</mxfile>
